<svg xmlns="http://www.w3.org/2000/svg" version="1.1" xmlns:xlink="http://www.w3.org/1999/xlink" xmlns:svgjs="http://svgjs.dev/svgjs" width="1440" height="560" preserveAspectRatio="none" viewBox="0 0 1440 560"><g mask="url(&quot;#SvgjsMask1017&quot;)" fill="none"><rect width="1440" height="560" x="0" y="0" fill="rgba(70, 139, 151, 1)"></rect><path d="M-106.79 350.29L-106.79 350.29" stroke="rgba(28, 82, 192, 1)" stroke-width="1.5"></path><path d="M-106.79 350.29L-95.35 516.74" stroke="rgba(28, 82, 192, 1)" stroke-width="1.5"></path><path d="M-106.79 350.29L103.13 358.95" stroke="rgba(28, 82, 192, 1)" stroke-width="1.5"></path><path d="M-106.79 350.29L93.27 533.92" stroke="rgba(28, 82, 192, 1)" stroke-width="1.5"></path><path d="M-106.79 350.29L-93.57 671.65" stroke="rgba(28, 82, 192, 1)" stroke-width="1.5"></path><path d="M-95.35 516.74L-95.35 516.74" stroke="rgba(28, 82, 192, 1)" stroke-width="1.5"></path><path d="M-95.35 516.74L-93.57 671.65" stroke="rgba(28, 82, 192, 1)" stroke-width="1.5"></path><path d="M-95.35 516.74L93.27 533.92" stroke="rgba(28, 82, 192, 1)" stroke-width="1.5"></path><path d="M-93.57 671.65L-93.57 671.65" stroke="rgba(28, 82, 192, 1)" stroke-width="1.5"></path><path d="M-93.57 671.65L43.87 698.89" stroke="rgba(28, 82, 192, 1)" stroke-width="1.5"></path><path d="M-93.57 671.65L93.27 533.92" stroke="rgba(28, 82, 192, 1)" stroke-width="1.5"></path><path d="M103.13 358.95L103.13 358.95" stroke="rgba(28, 82, 192, 1)" stroke-width="1.5"></path><path d="M103.13 358.95L247.11 386.93" stroke="rgba(28, 82, 192, 1)" stroke-width="1.5"></path><path d="M103.13 358.95L93.27 533.92" stroke="rgba(28, 82, 192, 1)" stroke-width="1.5"></path><path d="M103.13 358.95L259.82 510.79" stroke="rgba(28, 82, 192, 1)" stroke-width="1.5"></path><path d="M103.13 358.95L-95.35 516.74" stroke="rgba(28, 82, 192, 1)" stroke-width="1.5"></path><path d="M103.13 358.95L371.15 381.74" stroke="rgba(28, 82, 192, 1)" stroke-width="1.5"></path><path d="M93.27 533.92L93.27 533.92" stroke="rgba(28, 82, 192, 1)" stroke-width="1.5"></path><path d="M93.27 533.92L259.82 510.79" stroke="rgba(28, 82, 192, 1)" stroke-width="1.5"></path><path d="M93.27 533.92L43.87 698.89" stroke="rgba(28, 82, 192, 1)" stroke-width="1.5"></path><path d="M93.27 533.92L247.11 386.93" stroke="rgba(28, 82, 192, 1)" stroke-width="1.5"></path><path d="M43.87 698.89L43.87 698.89" stroke="rgba(28, 82, 192, 1)" stroke-width="1.5"></path><path d="M43.87 698.89L-95.35 516.74" stroke="rgba(28, 82, 192, 1)" stroke-width="1.5"></path><path d="M247.11 386.93L247.11 386.93" stroke="rgba(28, 82, 192, 1)" stroke-width="1.5"></path><path d="M247.11 386.93L371.15 381.74" stroke="rgba(28, 82, 192, 1)" stroke-width="1.5"></path><path d="M247.11 386.93L259.82 510.79" stroke="rgba(28, 82, 192, 1)" stroke-width="1.5"></path><path d="M247.11 386.93L380.35 545.38" stroke="rgba(28, 82, 192, 1)" stroke-width="1.5"></path><path d="M259.82 510.79L259.82 510.79" stroke="rgba(28, 82, 192, 1)" stroke-width="1.5"></path><path d="M259.82 510.79L380.35 545.38" stroke="rgba(28, 82, 192, 1)" stroke-width="1.5"></path><path d="M259.82 510.79L371.15 381.74" stroke="rgba(28, 82, 192, 1)" stroke-width="1.5"></path><path d="M259.82 510.79L382.21 702.81" stroke="rgba(28, 82, 192, 1)" stroke-width="1.5"></path><path d="M371.15 381.74L371.15 381.74" stroke="rgba(28, 82, 192, 1)" stroke-width="1.5"></path><path d="M371.15 381.74L380.35 545.38" stroke="rgba(28, 82, 192, 1)" stroke-width="1.5"></path><path d="M371.15 381.74L536.57 410.85" stroke="rgba(28, 82, 192, 1)" stroke-width="1.5"></path><path d="M380.35 545.38L380.35 545.38" stroke="rgba(28, 82, 192, 1)" stroke-width="1.5"></path><path d="M380.35 545.38L382.21 702.81" stroke="rgba(28, 82, 192, 1)" stroke-width="1.5"></path><path d="M380.35 545.38L529.2 490.09" stroke="rgba(28, 82, 192, 1)" stroke-width="1.5"></path><path d="M380.35 545.38L501.59 661.87" stroke="rgba(28, 82, 192, 1)" stroke-width="1.5"></path><path d="M382.21 702.81L382.21 702.81" stroke="rgba(28, 82, 192, 1)" stroke-width="1.5"></path><path d="M382.21 702.81L501.59 661.87" stroke="rgba(28, 82, 192, 1)" stroke-width="1.5"></path><path d="M382.21 702.81L529.2 490.09" stroke="rgba(28, 82, 192, 1)" stroke-width="1.5"></path><path d="M536.57 410.85L536.57 410.85" stroke="rgba(28, 82, 192, 1)" stroke-width="1.5"></path><path d="M536.57 410.85L529.2 490.09" stroke="rgba(28, 82, 192, 1)" stroke-width="1.5"></path><path d="M536.57 410.85L638.4 540.13" stroke="rgba(28, 82, 192, 1)" stroke-width="1.5"></path><path d="M529.2 490.09L529.2 490.09" stroke="rgba(28, 82, 192, 1)" stroke-width="1.5"></path><path d="M529.2 490.09L638.4 540.13" stroke="rgba(28, 82, 192, 1)" stroke-width="1.5"></path><path d="M529.2 490.09L501.59 661.87" stroke="rgba(28, 82, 192, 1)" stroke-width="1.5"></path><path d="M529.2 490.09L371.15 381.74" stroke="rgba(28, 82, 192, 1)" stroke-width="1.5"></path><path d="M501.59 661.87L501.59 661.87" stroke="rgba(28, 82, 192, 1)" stroke-width="1.5"></path><path d="M501.59 661.87L638.4 540.13" stroke="rgba(28, 82, 192, 1)" stroke-width="1.5"></path><path d="M707.48 390.78L707.48 390.78" stroke="rgba(28, 82, 192, 1)" stroke-width="1.5"></path><path d="M707.48 390.78L807.72 409.34" stroke="rgba(28, 82, 192, 1)" stroke-width="1.5"></path><path d="M707.48 390.78L638.4 540.13" stroke="rgba(28, 82, 192, 1)" stroke-width="1.5"></path><path d="M707.48 390.78L788.52 541.52" stroke="rgba(28, 82, 192, 1)" stroke-width="1.5"></path><path d="M707.48 390.78L536.57 410.85" stroke="rgba(28, 82, 192, 1)" stroke-width="1.5"></path><path d="M707.48 390.78L795 214.71" stroke="rgba(28, 82, 192, 1)" stroke-width="1.5"></path><path d="M638.4 540.13L638.4 540.13" stroke="rgba(28, 82, 192, 1)" stroke-width="1.5"></path><path d="M638.4 540.13L788.52 541.52" stroke="rgba(28, 82, 192, 1)" stroke-width="1.5"></path><path d="M638.4 540.13L711.62 687.86" stroke="rgba(28, 82, 192, 1)" stroke-width="1.5"></path><path d="M711.62 687.86L711.62 687.86" stroke="rgba(28, 82, 192, 1)" stroke-width="1.5"></path><path d="M711.62 687.86L837.58 683.82" stroke="rgba(28, 82, 192, 1)" stroke-width="1.5"></path><path d="M711.62 687.86L788.52 541.52" stroke="rgba(28, 82, 192, 1)" stroke-width="1.5"></path><path d="M795 214.71L795 214.71" stroke="rgba(28, 82, 192, 1)" stroke-width="1.5"></path><path d="M795 214.71L807.72 409.34" stroke="rgba(28, 82, 192, 1)" stroke-width="1.5"></path><path d="M795 214.71L971.43 347.53" stroke="rgba(28, 82, 192, 1)" stroke-width="1.5"></path><path d="M795 214.71L979.09 -38.96" stroke="rgba(28, 82, 192, 1)" stroke-width="1.5"></path><path d="M795 214.71L536.57 410.85" stroke="rgba(28, 82, 192, 1)" stroke-width="1.5"></path><path d="M795 214.71L788.52 541.52" stroke="rgba(28, 82, 192, 1)" stroke-width="1.5"></path><path d="M807.72 409.34L807.72 409.34" stroke="rgba(28, 82, 192, 1)" stroke-width="1.5"></path><path d="M788.52 541.52L788.52 541.52" stroke="rgba(28, 82, 192, 1)" stroke-width="1.5"></path><path d="M788.52 541.52L807.72 409.34" stroke="rgba(28, 82, 192, 1)" stroke-width="1.5"></path><path d="M788.52 541.52L837.58 683.82" stroke="rgba(28, 82, 192, 1)" stroke-width="1.5"></path><path d="M837.58 683.82L837.58 683.82" stroke="rgba(28, 82, 192, 1)" stroke-width="1.5"></path><path d="M837.58 683.82L951.17 638.42" stroke="rgba(28, 82, 192, 1)" stroke-width="1.5"></path><path d="M979.09 -38.96L979.09 -38.96" stroke="rgba(28, 82, 192, 1)" stroke-width="1.5"></path><path d="M979.09 -38.96L1091.1 -62.96" stroke="rgba(28, 82, 192, 1)" stroke-width="1.5"></path><path d="M979.09 -38.96L1150.52 78.02" stroke="rgba(28, 82, 192, 1)" stroke-width="1.5"></path><path d="M971.43 347.53L971.43 347.53" stroke="rgba(28, 82, 192, 1)" stroke-width="1.5"></path><path d="M971.43 347.53L1118.1 384.77" stroke="rgba(28, 82, 192, 1)" stroke-width="1.5"></path><path d="M971.43 347.53L807.72 409.34" stroke="rgba(28, 82, 192, 1)" stroke-width="1.5"></path><path d="M971.43 347.53L978.77 527.19" stroke="rgba(28, 82, 192, 1)" stroke-width="1.5"></path><path d="M971.43 347.53L1153.94 530.69" stroke="rgba(28, 82, 192, 1)" stroke-width="1.5"></path><path d="M978.77 527.19L978.77 527.19" stroke="rgba(28, 82, 192, 1)" stroke-width="1.5"></path><path d="M978.77 527.19L951.17 638.42" stroke="rgba(28, 82, 192, 1)" stroke-width="1.5"></path><path d="M978.77 527.19L1153.94 530.69" stroke="rgba(28, 82, 192, 1)" stroke-width="1.5"></path><path d="M978.77 527.19L788.52 541.52" stroke="rgba(28, 82, 192, 1)" stroke-width="1.5"></path><path d="M978.77 527.19L1118.1 384.77" stroke="rgba(28, 82, 192, 1)" stroke-width="1.5"></path><path d="M951.17 638.42L951.17 638.42" stroke="rgba(28, 82, 192, 1)" stroke-width="1.5"></path><path d="M951.17 638.42L1138.29 657.16" stroke="rgba(28, 82, 192, 1)" stroke-width="1.5"></path><path d="M951.17 638.42L788.52 541.52" stroke="rgba(28, 82, 192, 1)" stroke-width="1.5"></path><path d="M951.17 638.42L1153.94 530.69" stroke="rgba(28, 82, 192, 1)" stroke-width="1.5"></path><path d="M951.17 638.42L711.62 687.86" stroke="rgba(28, 82, 192, 1)" stroke-width="1.5"></path><path d="M1091.1 -62.96L1091.1 -62.96" stroke="rgba(28, 82, 192, 1)" stroke-width="1.5"></path><path d="M1091.1 -62.96L1150.52 78.02" stroke="rgba(28, 82, 192, 1)" stroke-width="1.5"></path><path d="M1091.1 -62.96L1268.35 58.88" stroke="rgba(28, 82, 192, 1)" stroke-width="1.5"></path><path d="M1150.52 78.02L1150.52 78.02" stroke="rgba(28, 82, 192, 1)" stroke-width="1.5"></path><path d="M1150.52 78.02L1268.35 58.88" stroke="rgba(28, 82, 192, 1)" stroke-width="1.5"></path><path d="M1150.52 78.02L1255.29 206.28" stroke="rgba(28, 82, 192, 1)" stroke-width="1.5"></path><path d="M1118.1 384.77L1118.1 384.77" stroke="rgba(28, 82, 192, 1)" stroke-width="1.5"></path><path d="M1118.1 384.77L1153.94 530.69" stroke="rgba(28, 82, 192, 1)" stroke-width="1.5"></path><path d="M1118.1 384.77L1280.81 339.03" stroke="rgba(28, 82, 192, 1)" stroke-width="1.5"></path><path d="M1153.94 530.69L1153.94 530.69" stroke="rgba(28, 82, 192, 1)" stroke-width="1.5"></path><path d="M1153.94 530.69L1138.29 657.16" stroke="rgba(28, 82, 192, 1)" stroke-width="1.5"></path><path d="M1153.94 530.69L1290.28 488.05" stroke="rgba(28, 82, 192, 1)" stroke-width="1.5"></path><path d="M1153.94 530.69L1308.96 699.67" stroke="rgba(28, 82, 192, 1)" stroke-width="1.5"></path><path d="M1138.29 657.16L1138.29 657.16" stroke="rgba(28, 82, 192, 1)" stroke-width="1.5"></path><path d="M1138.29 657.16L1308.96 699.67" stroke="rgba(28, 82, 192, 1)" stroke-width="1.5"></path><path d="M1138.29 657.16L978.77 527.19" stroke="rgba(28, 82, 192, 1)" stroke-width="1.5"></path><path d="M1138.29 657.16L1290.28 488.05" stroke="rgba(28, 82, 192, 1)" stroke-width="1.5"></path><path d="M1138.29 657.16L1399.43 702.87" stroke="rgba(28, 82, 192, 1)" stroke-width="1.5"></path><path d="M1268.35 58.88L1268.35 58.88" stroke="rgba(28, 82, 192, 1)" stroke-width="1.5"></path><path d="M1268.35 58.88L1255.29 206.28" stroke="rgba(28, 82, 192, 1)" stroke-width="1.5"></path><path d="M1268.35 58.88L1459.18 38.38" stroke="rgba(28, 82, 192, 1)" stroke-width="1.5"></path><path d="M1255.29 206.28L1255.29 206.28" stroke="rgba(28, 82, 192, 1)" stroke-width="1.5"></path><path d="M1255.29 206.28L1280.81 339.03" stroke="rgba(28, 82, 192, 1)" stroke-width="1.5"></path><path d="M1280.81 339.03L1280.81 339.03" stroke="rgba(28, 82, 192, 1)" stroke-width="1.5"></path><path d="M1280.81 339.03L1290.28 488.05" stroke="rgba(28, 82, 192, 1)" stroke-width="1.5"></path><path d="M1280.81 339.03L1414.61 247.13" stroke="rgba(28, 82, 192, 1)" stroke-width="1.5"></path><path d="M1280.81 339.03L1428.98 408.93" stroke="rgba(28, 82, 192, 1)" stroke-width="1.5"></path><path d="M1290.28 488.05L1290.28 488.05" stroke="rgba(28, 82, 192, 1)" stroke-width="1.5"></path><path d="M1290.28 488.05L1393.95 503.81" stroke="rgba(28, 82, 192, 1)" stroke-width="1.5"></path><path d="M1290.28 488.05L1428.98 408.93" stroke="rgba(28, 82, 192, 1)" stroke-width="1.5"></path><path d="M1290.28 488.05L1118.1 384.77" stroke="rgba(28, 82, 192, 1)" stroke-width="1.5"></path><path d="M1290.28 488.05L1308.96 699.67" stroke="rgba(28, 82, 192, 1)" stroke-width="1.5"></path><path d="M1308.96 699.67L1308.96 699.67" stroke="rgba(28, 82, 192, 1)" stroke-width="1.5"></path><path d="M1308.96 699.67L1399.43 702.87" stroke="rgba(28, 82, 192, 1)" stroke-width="1.5"></path><path d="M1428.18 -103.7L1428.18 -103.7" stroke="rgba(28, 82, 192, 1)" stroke-width="1.5"></path><path d="M1428.18 -103.7L1566.09 -96.22" stroke="rgba(28, 82, 192, 1)" stroke-width="1.5"></path><path d="M1428.18 -103.7L1459.18 38.38" stroke="rgba(28, 82, 192, 1)" stroke-width="1.5"></path><path d="M1428.18 -103.7L1268.35 58.88" stroke="rgba(28, 82, 192, 1)" stroke-width="1.5"></path><path d="M1459.18 38.38L1459.18 38.38" stroke="rgba(28, 82, 192, 1)" stroke-width="1.5"></path><path d="M1459.18 38.38L1564.36 85.49" stroke="rgba(28, 82, 192, 1)" stroke-width="1.5"></path><path d="M1459.18 38.38L1566.09 -96.22" stroke="rgba(28, 82, 192, 1)" stroke-width="1.5"></path><path d="M1459.18 38.38L1414.61 247.13" stroke="rgba(28, 82, 192, 1)" stroke-width="1.5"></path><path d="M1414.61 247.13L1414.61 247.13" stroke="rgba(28, 82, 192, 1)" stroke-width="1.5"></path><path d="M1428.98 408.93L1428.98 408.93" stroke="rgba(28, 82, 192, 1)" stroke-width="1.5"></path><path d="M1428.98 408.93L1393.95 503.81" stroke="rgba(28, 82, 192, 1)" stroke-width="1.5"></path><path d="M1428.98 408.93L1566.06 366.03" stroke="rgba(28, 82, 192, 1)" stroke-width="1.5"></path><path d="M1428.98 408.93L1414.61 247.13" stroke="rgba(28, 82, 192, 1)" stroke-width="1.5"></path><path d="M1428.98 408.93L1581.47 538.28" stroke="rgba(28, 82, 192, 1)" stroke-width="1.5"></path><path d="M1393.95 503.81L1393.95 503.81" stroke="rgba(28, 82, 192, 1)" stroke-width="1.5"></path><path d="M1393.95 503.81L1581.47 538.28" stroke="rgba(28, 82, 192, 1)" stroke-width="1.5"></path><path d="M1393.95 503.81L1399.43 702.87" stroke="rgba(28, 82, 192, 1)" stroke-width="1.5"></path><path d="M1393.95 503.81L1280.81 339.03" stroke="rgba(28, 82, 192, 1)" stroke-width="1.5"></path><path d="M1393.95 503.81L1308.96 699.67" stroke="rgba(28, 82, 192, 1)" stroke-width="1.5"></path><path d="M1399.43 702.87L1399.43 702.87" stroke="rgba(28, 82, 192, 1)" stroke-width="1.5"></path><path d="M1566.09 -96.22L1566.09 -96.22" stroke="rgba(28, 82, 192, 1)" stroke-width="1.5"></path><path d="M1566.09 -96.22L1564.36 85.49" stroke="rgba(28, 82, 192, 1)" stroke-width="1.5"></path><path d="M1566.09 -96.22L1268.35 58.88" stroke="rgba(28, 82, 192, 1)" stroke-width="1.5"></path><path d="M1566.09 -96.22L1595.52 249.46" stroke="rgba(28, 82, 192, 1)" stroke-width="1.5"></path><path d="M1564.36 85.49L1564.36 85.49" stroke="rgba(28, 82, 192, 1)" stroke-width="1.5"></path><path d="M1564.36 85.49L1595.52 249.46" stroke="rgba(28, 82, 192, 1)" stroke-width="1.5"></path><path d="M1564.36 85.49L1414.61 247.13" stroke="rgba(28, 82, 192, 1)" stroke-width="1.5"></path><path d="M1595.52 249.46L1595.52 249.46" stroke="rgba(28, 82, 192, 1)" stroke-width="1.5"></path><path d="M1595.52 249.46L1566.06 366.03" stroke="rgba(28, 82, 192, 1)" stroke-width="1.5"></path><path d="M1595.52 249.46L1414.61 247.13" stroke="rgba(28, 82, 192, 1)" stroke-width="1.5"></path><path d="M1595.52 249.46L1428.98 408.93" stroke="rgba(28, 82, 192, 1)" stroke-width="1.5"></path><path d="M1595.52 249.46L1459.18 38.38" stroke="rgba(28, 82, 192, 1)" stroke-width="1.5"></path><path d="M1595.52 249.46L1581.47 538.28" stroke="rgba(28, 82, 192, 1)" stroke-width="1.5"></path><path d="M1566.06 366.03L1566.06 366.03" stroke="rgba(28, 82, 192, 1)" stroke-width="1.5"></path><path d="M1566.06 366.03L1581.47 538.28" stroke="rgba(28, 82, 192, 1)" stroke-width="1.5"></path><path d="M1566.06 366.03L1414.61 247.13" stroke="rgba(28, 82, 192, 1)" stroke-width="1.5"></path><path d="M1566.06 366.03L1393.95 503.81" stroke="rgba(28, 82, 192, 1)" stroke-width="1.5"></path><path d="M1566.06 366.03L1564.36 85.49" stroke="rgba(28, 82, 192, 1)" stroke-width="1.5"></path><path d="M1581.47 538.28L1581.47 538.28" stroke="rgba(28, 82, 192, 1)" stroke-width="1.5"></path><path d="M1581.47 538.28L1602.6 702.37" stroke="rgba(28, 82, 192, 1)" stroke-width="1.5"></path><path d="M1602.6 702.37L1602.6 702.37" stroke="rgba(28, 82, 192, 1)" stroke-width="1.5"></path><path d="M1602.6 702.37L1399.43 702.87" stroke="rgba(28, 82, 192, 1)" stroke-width="1.5"></path><circle r="5" cx="-106.79" cy="350.29" fill="rgba(28, 82, 192, 1)"></circle><circle r="5" cx="-95.35" cy="516.74" fill="rgba(28, 82, 192, 1)"></circle><circle r="5" cx="-93.57" cy="671.65" fill="rgba(28, 82, 192, 1)"></circle><circle r="5" cx="103.13" cy="358.95" fill="rgba(28, 82, 192, 1)"></circle><circle r="5" cx="93.27" cy="533.92" fill="rgba(28, 82, 192, 1)"></circle><circle r="5" cx="43.87" cy="698.89" fill="rgba(28, 82, 192, 1)"></circle><circle r="5" cx="247.11" cy="386.93" fill="rgba(28, 82, 192, 1)"></circle><circle r="5" cx="259.82" cy="510.79" fill="rgba(28, 82, 192, 1)"></circle><circle r="5" cx="371.15" cy="381.74" fill="rgba(28, 82, 192, 1)"></circle><circle r="5" cx="380.35" cy="545.38" fill="rgba(28, 82, 192, 1)"></circle><circle r="5" cx="382.21" cy="702.81" fill="rgba(28, 82, 192, 1)"></circle><circle r="5" cx="536.57" cy="410.85" fill="rgba(28, 82, 192, 1)"></circle><circle r="5" cx="529.2" cy="490.09" fill="rgba(28, 82, 192, 1)"></circle><circle r="5" cx="501.59" cy="661.87" fill="rgba(28, 82, 192, 1)"></circle><circle r="5" cx="707.48" cy="390.78" fill="rgba(28, 82, 192, 1)"></circle><circle r="5" cx="638.4" cy="540.13" fill="rgba(28, 82, 192, 1)"></circle><circle r="5" cx="711.62" cy="687.86" fill="rgba(28, 82, 192, 1)"></circle><circle r="5" cx="795" cy="214.71" fill="rgba(28, 82, 192, 1)"></circle><circle r="5" cx="807.72" cy="409.34" fill="rgba(28, 82, 192, 1)"></circle><circle r="5" cx="788.52" cy="541.52" fill="rgba(28, 82, 192, 1)"></circle><circle r="5" cx="837.58" cy="683.82" fill="rgba(28, 82, 192, 1)"></circle><circle r="5" cx="979.09" cy="-38.96" fill="rgba(28, 82, 192, 1)"></circle><circle r="5" cx="971.43" cy="347.53" fill="rgba(28, 82, 192, 1)"></circle><circle r="5" cx="978.77" cy="527.19" fill="rgba(28, 82, 192, 1)"></circle><circle r="5" cx="951.17" cy="638.42" fill="rgba(28, 82, 192, 1)"></circle><circle r="5" cx="1091.1" cy="-62.96" fill="rgba(28, 82, 192, 1)"></circle><circle r="5" cx="1150.52" cy="78.02" fill="rgba(28, 82, 192, 1)"></circle><circle r="5" cx="1118.1" cy="384.77" fill="rgba(28, 82, 192, 1)"></circle><circle r="5" cx="1153.94" cy="530.69" fill="rgba(28, 82, 192, 1)"></circle><circle r="5" cx="1138.29" cy="657.16" fill="rgba(28, 82, 192, 1)"></circle><circle r="5" cx="1268.35" cy="58.88" fill="rgba(28, 82, 192, 1)"></circle><circle r="5" cx="1255.29" cy="206.28" fill="rgba(28, 82, 192, 1)"></circle><circle r="5" cx="1280.81" cy="339.03" fill="rgba(28, 82, 192, 1)"></circle><circle r="5" cx="1290.28" cy="488.05" fill="rgba(28, 82, 192, 1)"></circle><circle r="5" cx="1308.96" cy="699.67" fill="rgba(28, 82, 192, 1)"></circle><circle r="5" cx="1428.18" cy="-103.7" fill="rgba(28, 82, 192, 1)"></circle><circle r="5" cx="1459.18" cy="38.38" fill="rgba(28, 82, 192, 1)"></circle><circle r="5" cx="1414.61" cy="247.13" fill="rgba(28, 82, 192, 1)"></circle><circle r="5" cx="1428.98" cy="408.93" fill="rgba(28, 82, 192, 1)"></circle><circle r="5" cx="1393.95" cy="503.81" fill="rgba(28, 82, 192, 1)"></circle><circle r="5" cx="1399.43" cy="702.87" fill="rgba(28, 82, 192, 1)"></circle><circle r="5" cx="1566.09" cy="-96.22" fill="rgba(28, 82, 192, 1)"></circle><circle r="5" cx="1564.36" cy="85.49" fill="rgba(28, 82, 192, 1)"></circle><circle r="5" cx="1595.52" cy="249.46" fill="rgba(28, 82, 192, 1)"></circle><circle r="5" cx="1566.06" cy="366.03" fill="rgba(28, 82, 192, 1)"></circle><circle r="5" cx="1581.47" cy="538.28" fill="rgba(28, 82, 192, 1)"></circle><circle r="5" cx="1602.6" cy="702.37" fill="rgba(28, 82, 192, 1)"></circle><path d="M249.4 703.77L249.4 703.77" stroke="hsl(228.20000000000005, 25.9%, 50.2%)" stroke-width="1.5"></path><path d="M249.4 703.77L221.29 549.63" stroke="hsl(228.20000000000005, 25.9%, 50.2%)" stroke-width="1.5"></path><path d="M249.4 703.77L401.44 659.77" stroke="hsl(228.20000000000005, 25.9%, 50.2%)" stroke-width="1.5"></path><path d="M249.4 703.77L49.43 672.87" stroke="hsl(228.20000000000005, 25.9%, 50.2%)" stroke-width="1.5"></path><path d="M249.4 703.77L70.24 552.14" stroke="hsl(228.20000000000005, 25.9%, 50.2%)" stroke-width="1.5"></path><path d="M359.87 491.92L359.87 491.92" stroke="hsl(228.20000000000005, 25.9%, 50.2%)" stroke-width="1.5"></path><path d="M359.87 491.92L221.29 549.63" stroke="hsl(228.20000000000005, 25.9%, 50.2%)" stroke-width="1.5"></path><path d="M359.87 491.92L401.44 659.77" stroke="hsl(228.20000000000005, 25.9%, 50.2%)" stroke-width="1.5"></path><path d="M401.44 659.77L401.44 659.77" stroke="hsl(228.20000000000005, 25.9%, 50.2%)" stroke-width="1.5"></path><path d="M401.44 659.77L543.84 668.8" stroke="hsl(228.20000000000005, 25.9%, 50.2%)" stroke-width="1.5"></path><path d="M980.22 552.58L980.22 552.58" stroke="hsl(228.20000000000005, 25.9%, 50.2%)" stroke-width="1.5"></path><path d="M980.22 552.58L1002.42 663.49" stroke="hsl(228.20000000000005, 25.9%, 50.2%)" stroke-width="1.5"></path><path d="M1141.36 100.4L1141.36 100.4" stroke="hsl(228.20000000000005, 25.9%, 50.2%)" stroke-width="1.5"></path><path d="M1141.36 100.4L1109.72 201.14" stroke="hsl(228.20000000000005, 25.9%, 50.2%)" stroke-width="1.5"></path><path d="M1141.36 100.4L1298.59 207.57" stroke="hsl(228.20000000000005, 25.9%, 50.2%)" stroke-width="1.5"></path><path d="M1141.36 100.4L1294.71 -100.72" stroke="hsl(228.20000000000005, 25.9%, 50.2%)" stroke-width="1.5"></path><path d="M1141.36 100.4L991 363.73" stroke="hsl(228.20000000000005, 25.9%, 50.2%)" stroke-width="1.5"></path><path d="M1146.28 494.05L1146.28 494.05" stroke="hsl(228.20000000000005, 25.9%, 50.2%)" stroke-width="1.5"></path><path d="M1146.28 494.05L1277.09 516.5" stroke="hsl(228.20000000000005, 25.9%, 50.2%)" stroke-width="1.5"></path><path d="M1146.28 494.05L980.22 552.58" stroke="hsl(228.20000000000005, 25.9%, 50.2%)" stroke-width="1.5"></path><path d="M1146.28 494.05L1307.36 401.65" stroke="hsl(228.20000000000005, 25.9%, 50.2%)" stroke-width="1.5"></path><path d="M1459.86 -112.05L1459.86 -112.05" stroke="hsl(228.20000000000005, 25.9%, 50.2%)" stroke-width="1.5"></path><path d="M1459.86 -112.05L1606.32 -57.82" stroke="hsl(228.20000000000005, 25.9%, 50.2%)" stroke-width="1.5"></path><path d="M1459.86 -112.05L1294.71 -100.72" stroke="hsl(228.20000000000005, 25.9%, 50.2%)" stroke-width="1.5"></path><path d="M1459.56 109.27L1459.56 109.27" stroke="hsl(228.20000000000005, 25.9%, 50.2%)" stroke-width="1.5"></path><path d="M1459.56 109.27L1436.94 226.11" stroke="hsl(228.20000000000005, 25.9%, 50.2%)" stroke-width="1.5"></path><path d="M1459.56 109.27L1596.9 59.86" stroke="hsl(228.20000000000005, 25.9%, 50.2%)" stroke-width="1.5"></path><path d="M1459.56 109.27L1574.93 206.93" stroke="hsl(228.20000000000005, 25.9%, 50.2%)" stroke-width="1.5"></path><path d="M1459.56 109.27L1298.59 207.57" stroke="hsl(228.20000000000005, 25.9%, 50.2%)" stroke-width="1.5"></path><path d="M1459.56 109.27L1459.86 -112.05" stroke="hsl(228.20000000000005, 25.9%, 50.2%)" stroke-width="1.5"></path><path d="M1459.56 109.27L1606.32 -57.82" stroke="hsl(228.20000000000005, 25.9%, 50.2%)" stroke-width="1.5"></path><path d="M1436.94 226.11L1436.94 226.11" stroke="hsl(228.20000000000005, 25.9%, 50.2%)" stroke-width="1.5"></path><path d="M1436.94 226.11L1400.19 346.06" stroke="hsl(228.20000000000005, 25.9%, 50.2%)" stroke-width="1.5"></path><path d="M1436.94 226.11L1574.93 206.93" stroke="hsl(228.20000000000005, 25.9%, 50.2%)" stroke-width="1.5"></path><path d="M1436.94 226.11L1298.59 207.57" stroke="hsl(228.20000000000005, 25.9%, 50.2%)" stroke-width="1.5"></path><path d="M1436.94 226.11L1307.36 401.65" stroke="hsl(228.20000000000005, 25.9%, 50.2%)" stroke-width="1.5"></path><path d="M1436.94 226.11L1605.98 377.84" stroke="hsl(228.20000000000005, 25.9%, 50.2%)" stroke-width="1.5"></path><path d="M1400.19 346.06L1400.19 346.06" stroke="hsl(228.20000000000005, 25.9%, 50.2%)" stroke-width="1.5"></path><path d="M1400.19 346.06L1307.36 401.65" stroke="hsl(228.20000000000005, 25.9%, 50.2%)" stroke-width="1.5"></path><path d="M1400.19 346.06L1298.59 207.57" stroke="hsl(228.20000000000005, 25.9%, 50.2%)" stroke-width="1.5"></path><path d="M1400.19 346.06L1448.14 534.93" stroke="hsl(228.20000000000005, 25.9%, 50.2%)" stroke-width="1.5"></path><path d="M1400.19 346.06L1605.98 377.84" stroke="hsl(228.20000000000005, 25.9%, 50.2%)" stroke-width="1.5"></path><path d="M1400.19 346.06L1277.09 516.5" stroke="hsl(228.20000000000005, 25.9%, 50.2%)" stroke-width="1.5"></path><path d="M1596.9 59.86L1596.9 59.86" stroke="hsl(228.20000000000005, 25.9%, 50.2%)" stroke-width="1.5"></path><path d="M1596.9 59.86L1606.32 -57.82" stroke="hsl(228.20000000000005, 25.9%, 50.2%)" stroke-width="1.5"></path><path d="M1596.9 59.86L1574.93 206.93" stroke="hsl(228.20000000000005, 25.9%, 50.2%)" stroke-width="1.5"></path><path d="M1596.9 59.86L1459.86 -112.05" stroke="hsl(228.20000000000005, 25.9%, 50.2%)" stroke-width="1.5"></path><path d="M1605.98 377.84L1605.98 377.84" stroke="hsl(228.20000000000005, 25.9%, 50.2%)" stroke-width="1.5"></path><path d="M1605.98 377.84L1573.68 514.2" stroke="hsl(228.20000000000005, 25.9%, 50.2%)" stroke-width="1.5"></path><path d="M1605.98 377.84L1574.93 206.93" stroke="hsl(228.20000000000005, 25.9%, 50.2%)" stroke-width="1.5"></path><path d="M-101.77 536.46L-101.77 536.46" stroke="hsl(228.20000000000005, 25.9%, 50.2%)" stroke-width="1.5"></path><path d="M-101.77 536.46L70.24 552.14" stroke="hsl(228.20000000000005, 25.9%, 50.2%)" stroke-width="1.5"></path><path d="M-101.77 536.46L49.43 672.87" stroke="hsl(228.20000000000005, 25.9%, 50.2%)" stroke-width="1.5"></path><path d="M-101.77 536.46L221.29 549.63" stroke="hsl(228.20000000000005, 25.9%, 50.2%)" stroke-width="1.5"></path><path d="M-101.77 536.46L249.4 703.77" stroke="hsl(228.20000000000005, 25.9%, 50.2%)" stroke-width="1.5"></path><path d="M70.24 552.14L70.24 552.14" stroke="hsl(228.20000000000005, 25.9%, 50.2%)" stroke-width="1.5"></path><path d="M70.24 552.14L49.43 672.87" stroke="hsl(228.20000000000005, 25.9%, 50.2%)" stroke-width="1.5"></path><path d="M70.24 552.14L221.29 549.63" stroke="hsl(228.20000000000005, 25.9%, 50.2%)" stroke-width="1.5"></path><path d="M49.43 672.87L49.43 672.87" stroke="hsl(228.20000000000005, 25.9%, 50.2%)" stroke-width="1.5"></path><path d="M221.29 549.63L221.29 549.63" stroke="hsl(228.20000000000005, 25.9%, 50.2%)" stroke-width="1.5"></path><path d="M547.07 517.79L547.07 517.79" stroke="hsl(228.20000000000005, 25.9%, 50.2%)" stroke-width="1.5"></path><path d="M547.07 517.79L687.84 492.77" stroke="hsl(228.20000000000005, 25.9%, 50.2%)" stroke-width="1.5"></path><path d="M547.07 517.79L543.84 668.8" stroke="hsl(228.20000000000005, 25.9%, 50.2%)" stroke-width="1.5"></path><path d="M547.07 517.79L640.15 381.36" stroke="hsl(228.20000000000005, 25.9%, 50.2%)" stroke-width="1.5"></path><path d="M543.84 668.8L543.84 668.8" stroke="hsl(228.20000000000005, 25.9%, 50.2%)" stroke-width="1.5"></path><path d="M543.84 668.8L672.86 685.12" stroke="hsl(228.20000000000005, 25.9%, 50.2%)" stroke-width="1.5"></path><path d="M543.84 668.8L687.84 492.77" stroke="hsl(228.20000000000005, 25.9%, 50.2%)" stroke-width="1.5"></path><path d="M543.84 668.8L359.87 491.92" stroke="hsl(228.20000000000005, 25.9%, 50.2%)" stroke-width="1.5"></path><path d="M640.15 381.36L640.15 381.36" stroke="hsl(228.20000000000005, 25.9%, 50.2%)" stroke-width="1.5"></path><path d="M640.15 381.36L687.84 492.77" stroke="hsl(228.20000000000005, 25.9%, 50.2%)" stroke-width="1.5"></path><path d="M640.15 381.36L824.74 407.41" stroke="hsl(228.20000000000005, 25.9%, 50.2%)" stroke-width="1.5"></path><path d="M640.15 381.36L822.28 488.25" stroke="hsl(228.20000000000005, 25.9%, 50.2%)" stroke-width="1.5"></path><path d="M687.84 492.77L687.84 492.77" stroke="hsl(228.20000000000005, 25.9%, 50.2%)" stroke-width="1.5"></path><path d="M672.86 685.12L672.86 685.12" stroke="hsl(228.20000000000005, 25.9%, 50.2%)" stroke-width="1.5"></path><path d="M672.86 685.12L687.84 492.77" stroke="hsl(228.20000000000005, 25.9%, 50.2%)" stroke-width="1.5"></path><path d="M672.86 685.12L861.97 641.97" stroke="hsl(228.20000000000005, 25.9%, 50.2%)" stroke-width="1.5"></path><path d="M824.74 407.41L824.74 407.41" stroke="hsl(228.20000000000005, 25.9%, 50.2%)" stroke-width="1.5"></path><path d="M824.74 407.41L822.28 488.25" stroke="hsl(228.20000000000005, 25.9%, 50.2%)" stroke-width="1.5"></path><path d="M824.74 407.41L687.84 492.77" stroke="hsl(228.20000000000005, 25.9%, 50.2%)" stroke-width="1.5"></path><path d="M824.74 407.41L991 363.73" stroke="hsl(228.20000000000005, 25.9%, 50.2%)" stroke-width="1.5"></path><path d="M822.28 488.25L822.28 488.25" stroke="hsl(228.20000000000005, 25.9%, 50.2%)" stroke-width="1.5"></path><path d="M822.28 488.25L687.84 492.77" stroke="hsl(228.20000000000005, 25.9%, 50.2%)" stroke-width="1.5"></path><path d="M822.28 488.25L861.97 641.97" stroke="hsl(228.20000000000005, 25.9%, 50.2%)" stroke-width="1.5"></path><path d="M861.97 641.97L861.97 641.97" stroke="hsl(228.20000000000005, 25.9%, 50.2%)" stroke-width="1.5"></path><path d="M861.97 641.97L1002.42 663.49" stroke="hsl(228.20000000000005, 25.9%, 50.2%)" stroke-width="1.5"></path><path d="M861.97 641.97L980.22 552.58" stroke="hsl(228.20000000000005, 25.9%, 50.2%)" stroke-width="1.5"></path><path d="M861.97 641.97L687.84 492.77" stroke="hsl(228.20000000000005, 25.9%, 50.2%)" stroke-width="1.5"></path><path d="M991 363.73L991 363.73" stroke="hsl(228.20000000000005, 25.9%, 50.2%)" stroke-width="1.5"></path><path d="M991 363.73L980.22 552.58" stroke="hsl(228.20000000000005, 25.9%, 50.2%)" stroke-width="1.5"></path><path d="M991 363.73L1109.72 201.14" stroke="hsl(228.20000000000005, 25.9%, 50.2%)" stroke-width="1.5"></path><path d="M1002.42 663.49L1002.42 663.49" stroke="hsl(228.20000000000005, 25.9%, 50.2%)" stroke-width="1.5"></path><path d="M1002.42 663.49L1146.28 494.05" stroke="hsl(228.20000000000005, 25.9%, 50.2%)" stroke-width="1.5"></path><path d="M1002.42 663.49L822.28 488.25" stroke="hsl(228.20000000000005, 25.9%, 50.2%)" stroke-width="1.5"></path><path d="M1109.72 201.14L1109.72 201.14" stroke="hsl(228.20000000000005, 25.9%, 50.2%)" stroke-width="1.5"></path><path d="M1109.72 201.14L1298.59 207.57" stroke="hsl(228.20000000000005, 25.9%, 50.2%)" stroke-width="1.5"></path><path d="M1109.72 201.14L1307.36 401.65" stroke="hsl(228.20000000000005, 25.9%, 50.2%)" stroke-width="1.5"></path><path d="M1109.72 201.14L1146.28 494.05" stroke="hsl(228.20000000000005, 25.9%, 50.2%)" stroke-width="1.5"></path><path d="M1294.71 -100.72L1294.71 -100.72" stroke="hsl(228.20000000000005, 25.9%, 50.2%)" stroke-width="1.5"></path><path d="M1294.71 -100.72L1459.56 109.27" stroke="hsl(228.20000000000005, 25.9%, 50.2%)" stroke-width="1.5"></path><path d="M1294.71 -100.72L1298.59 207.57" stroke="hsl(228.20000000000005, 25.9%, 50.2%)" stroke-width="1.5"></path><path d="M1294.71 -100.72L1606.32 -57.82" stroke="hsl(228.20000000000005, 25.9%, 50.2%)" stroke-width="1.5"></path><path d="M1294.71 -100.72L1596.9 59.86" stroke="hsl(228.20000000000005, 25.9%, 50.2%)" stroke-width="1.5"></path><path d="M1298.59 207.57L1298.59 207.57" stroke="hsl(228.20000000000005, 25.9%, 50.2%)" stroke-width="1.5"></path><path d="M1307.36 401.65L1307.36 401.65" stroke="hsl(228.20000000000005, 25.9%, 50.2%)" stroke-width="1.5"></path><path d="M1307.36 401.65L1277.09 516.5" stroke="hsl(228.20000000000005, 25.9%, 50.2%)" stroke-width="1.5"></path><path d="M1307.36 401.65L1448.14 534.93" stroke="hsl(228.20000000000005, 25.9%, 50.2%)" stroke-width="1.5"></path><path d="M1277.09 516.5L1277.09 516.5" stroke="hsl(228.20000000000005, 25.9%, 50.2%)" stroke-width="1.5"></path><path d="M1277.09 516.5L1448.14 534.93" stroke="hsl(228.20000000000005, 25.9%, 50.2%)" stroke-width="1.5"></path><path d="M1277.09 516.5L1269.13 691.58" stroke="hsl(228.20000000000005, 25.9%, 50.2%)" stroke-width="1.5"></path><path d="M1277.09 516.5L1453.41 685.14" stroke="hsl(228.20000000000005, 25.9%, 50.2%)" stroke-width="1.5"></path><path d="M1269.13 691.58L1269.13 691.58" stroke="hsl(228.20000000000005, 25.9%, 50.2%)" stroke-width="1.5"></path><path d="M1269.13 691.58L1453.41 685.14" stroke="hsl(228.20000000000005, 25.9%, 50.2%)" stroke-width="1.5"></path><path d="M1448.14 534.93L1448.14 534.93" stroke="hsl(228.20000000000005, 25.9%, 50.2%)" stroke-width="1.5"></path><path d="M1448.14 534.93L1573.68 514.2" stroke="hsl(228.20000000000005, 25.9%, 50.2%)" stroke-width="1.5"></path><path d="M1448.14 534.93L1453.41 685.14" stroke="hsl(228.20000000000005, 25.9%, 50.2%)" stroke-width="1.5"></path><path d="M1448.14 534.93L1605.98 377.84" stroke="hsl(228.20000000000005, 25.9%, 50.2%)" stroke-width="1.5"></path><path d="M1453.41 685.14L1453.41 685.14" stroke="hsl(228.20000000000005, 25.9%, 50.2%)" stroke-width="1.5"></path><path d="M1453.41 685.14L1573.68 514.2" stroke="hsl(228.20000000000005, 25.9%, 50.2%)" stroke-width="1.5"></path><path d="M1606.32 -57.82L1606.32 -57.82" stroke="hsl(228.20000000000005, 25.9%, 50.2%)" stroke-width="1.5"></path><path d="M1606.32 -57.82L1574.93 206.93" stroke="hsl(228.20000000000005, 25.9%, 50.2%)" stroke-width="1.5"></path><path d="M1574.93 206.93L1574.93 206.93" stroke="hsl(228.20000000000005, 25.9%, 50.2%)" stroke-width="1.5"></path><path d="M1573.68 514.2L1573.68 514.2" stroke="hsl(228.20000000000005, 25.9%, 50.2%)" stroke-width="1.5"></path><circle r="25" cx="249.4" cy="703.77" fill="url(&quot;#SvgjsRadialGradient1018&quot;)"></circle><circle r="25" cx="359.87" cy="491.92" fill="url(&quot;#SvgjsRadialGradient1018&quot;)"></circle><circle r="25" cx="401.44" cy="659.77" fill="url(&quot;#SvgjsRadialGradient1018&quot;)"></circle><circle r="25" cx="980.22" cy="552.58" fill="url(&quot;#SvgjsRadialGradient1018&quot;)"></circle><circle r="25" cx="1141.36" cy="100.4" fill="url(&quot;#SvgjsRadialGradient1018&quot;)"></circle><circle r="25" cx="1146.28" cy="494.05" fill="url(&quot;#SvgjsRadialGradient1018&quot;)"></circle><circle r="25" cx="1459.86" cy="-112.05" fill="url(&quot;#SvgjsRadialGradient1018&quot;)"></circle><circle r="25" cx="1459.56" cy="109.27" fill="url(&quot;#SvgjsRadialGradient1018&quot;)"></circle><circle r="25" cx="1436.94" cy="226.11" fill="url(&quot;#SvgjsRadialGradient1018&quot;)"></circle><circle r="25" cx="1400.19" cy="346.06" fill="url(&quot;#SvgjsRadialGradient1018&quot;)"></circle><circle r="25" cx="1596.9" cy="59.86" fill="url(&quot;#SvgjsRadialGradient1018&quot;)"></circle><circle r="25" cx="1605.98" cy="377.84" fill="url(&quot;#SvgjsRadialGradient1018&quot;)"></circle><circle r="5" cx="-101.77" cy="536.46" fill="#a4a9be"></circle><circle r="5" cx="70.24" cy="552.14" fill="#a4a9be"></circle><circle r="5" cx="49.43" cy="672.87" fill="#a4a9be"></circle><circle r="5" cx="221.29" cy="549.63" fill="#a4a9be"></circle><circle r="5" cx="547.07" cy="517.79" fill="#a4a9be"></circle><circle r="5" cx="543.84" cy="668.8" fill="#a4a9be"></circle><circle r="5" cx="640.15" cy="381.36" fill="#a4a9be"></circle><circle r="5" cx="687.84" cy="492.77" fill="#a4a9be"></circle><circle r="5" cx="672.86" cy="685.12" fill="#a4a9be"></circle><circle r="5" cx="824.74" cy="407.41" fill="#a4a9be"></circle><circle r="5" cx="822.28" cy="488.25" fill="#a4a9be"></circle><circle r="5" cx="861.97" cy="641.97" fill="#a4a9be"></circle><circle r="5" cx="991" cy="363.73" fill="#a4a9be"></circle><circle r="5" cx="1002.42" cy="663.49" fill="#a4a9be"></circle><circle r="5" cx="1109.72" cy="201.14" fill="#a4a9be"></circle><circle r="5" cx="1294.71" cy="-100.72" fill="#a4a9be"></circle><circle r="5" cx="1298.59" cy="207.57" fill="#a4a9be"></circle><circle r="5" cx="1307.36" cy="401.65" fill="#a4a9be"></circle><circle r="5" cx="1277.09" cy="516.5" fill="#a4a9be"></circle><circle r="5" cx="1269.13" cy="691.58" fill="#a4a9be"></circle><circle r="5" cx="1448.14" cy="534.93" fill="#a4a9be"></circle><circle r="5" cx="1453.41" cy="685.14" fill="#a4a9be"></circle><circle r="5" cx="1606.32" cy="-57.82" fill="#a4a9be"></circle><circle r="5" cx="1574.93" cy="206.93" fill="#a4a9be"></circle><circle r="5" cx="1573.68" cy="514.2" fill="#a4a9be"></circle></g><defs><mask id="SvgjsMask1017"><rect width="1440" height="560" fill="#ffffff"></rect></mask><radialGradient id="SvgjsRadialGradient1018"><stop stop-color="#ffffff" offset="0.1"></stop><stop stop-color="rgba(73, 83, 124, 1)" offset="0.2"></stop><stop stop-color="rgba(73, 83, 124, 0)" offset="1"></stop></radialGradient></defs></svg>